<?xml version="1.0" encoding="iso-8859-1"?>
<!-- Generator: Adobe Illustrator 19.0.0, SVG Export Plug-In . SVG Version: 6.00 Build 0)  -->
<svg version="1.1" id="Layer_1" xmlns="http://www.w3.org/2000/svg" xmlns:xlink="http://www.w3.org/1999/xlink" x="0px" y="0px"
	 viewBox="0 0 512 512" style="enable-background:new 0 0 512 512;" xml:space="preserve">
<g transform="translate(1)">
	<path style="fill:#FFE100;" d="M255,42.667c136.533,0,247.467,110.933,247.467,247.467v179.2H383v-179.2
		c0-70.827-57.173-128-128-128H7.533V42.667H255z"/>
	<path style="fill:#FFA800;" d="M255,42.667h-25.6c136.533,0,247.467,110.933,247.467,247.467v179.2h25.6v-179.2
		C502.467,153.6,391.533,42.667,255,42.667"/>
	<g>
		<polygon style="fill:#FFFFFF;" points="7.533,162.133 33.133,162.133 33.133,42.667 7.533,42.667 		"/>
		<path style="fill:#FFFFFF;" d="M280.6,162.133H255c70.827,0,128,57.173,128,128v179.2h25.6v-179.2
			C408.6,219.307,351.427,162.133,280.6,162.133"/>
	</g>
	<path d="M442.733,435.2c-5.12,0-8.533-3.413-8.533-8.533V409.6c0-5.12,3.413-8.533,8.533-8.533c5.12,0,8.533,3.413,8.533,8.533
		v17.067C451.267,431.787,447.853,435.2,442.733,435.2z"/>
	<path d="M442.733,363.52c-5.12,0-8.533-3.413-8.533-8.533v-36.693c0-5.12,3.413-8.533,8.533-8.533c5.12,0,8.533,3.413,8.533,8.533
		v36.693C451.267,359.253,447.853,363.52,442.733,363.52z M441.027,272.213c-4.267,0-7.68-3.413-8.533-7.68
		c-1.707-11.093-4.267-23.04-8.533-34.133c-1.707-4.267,0.853-9.387,5.12-11.093c4.267-1.707,9.387,0.853,11.093,5.12
		c4.267,11.947,6.827,24.747,8.533,36.693c0.853,4.267-2.56,9.387-7.68,9.387C441.88,272.213,441.027,272.213,441.027,272.213z
		 M406.893,188.587c-2.56,0-5.12-0.853-6.827-3.413c-6.827-9.387-14.507-17.92-23.04-26.453c-3.413-3.413-3.413-8.533,0-11.947
		c3.413-3.413,8.533-3.413,11.947,0c9.387,8.533,17.92,17.92,25.6,28.16c2.56,3.413,1.707,9.387-1.707,11.947
		C410.307,187.733,408.6,188.587,406.893,188.587z M337.773,130.56c-0.853,0-2.56,0-3.413-0.853
		c-10.24-5.12-21.333-9.387-32.427-11.947c-4.267-1.707-7.68-6.827-5.973-11.093c0.853-4.267,5.973-7.68,10.24-5.973
		c11.947,3.413,23.893,7.68,35.84,13.653c4.267,1.707,5.973,6.827,4.267,11.093C344.6,128.853,341.187,130.56,337.773,130.56z
		 M249.88,110.933h-36.693c-5.12,0-8.533-3.413-8.533-8.533c0-5.12,3.413-8.533,8.533-8.533h36.693c5.12,0,8.533,3.413,8.533,8.533
		S255,110.933,249.88,110.933z M158.573,110.933H121.88c-5.12,0-8.533-3.413-8.533-8.533c0-5.12,3.413-8.533,8.533-8.533h36.693
		c5.12,0,8.533,3.413,8.533,8.533S163.693,110.933,158.573,110.933z"/>
	<path d="M67.267,110.933H50.2c-5.12,0-8.533-3.413-8.533-8.533c0-5.12,3.413-8.533,8.533-8.533h17.067
		c5.12,0,8.533,3.413,8.533,8.533S72.387,110.933,67.267,110.933z"/>
	<path d="M502.467,477.867H383c-5.12,0-8.533-3.413-8.533-8.533v-179.2c0-65.707-53.76-119.467-119.467-119.467H7.533
		c-5.12,0-8.533-3.413-8.533-8.533V42.667c0-5.12,3.413-8.533,8.533-8.533H255c140.8,0,256,115.2,256,256v179.2
		C511,474.453,507.587,477.867,502.467,477.867z M391.533,460.8h102.4V290.133C493.933,158.72,386.413,51.2,255,51.2H16.067v102.4
		H255c75.093,0,136.533,61.44,136.533,136.533V460.8z"/>
</g>
<g>
</g>
<g>
</g>
<g>
</g>
<g>
</g>
<g>
</g>
<g>
</g>
<g>
</g>
<g>
</g>
<g>
</g>
<g>
</g>
<g>
</g>
<g>
</g>
<g>
</g>
<g>
</g>
<g>
</g>
</svg>
